<svg width="39" height="39" viewBox="0 0 39 39" fill="none" xmlns="http://www.w3.org/2000/svg">
<rect width="39" height="39" rx="19.5" fill="black"/>
<g clip-path="url(#clip0_359_5645)">
<path d="M26.4297 19.514C26.4297 18.238 26.4478 16.9608 26.4128 15.6848C26.406 15.4561 26.2318 15.1371 26.0396 15.0216C23.2691 13.3637 20.485 11.7276 17.6919 10.1074C17.5245 10.0102 17.2113 10.0068 17.0451 10.1017C15.6643 10.8815 14.2961 11.6841 12.9425 12.5119C12.7615 12.6228 12.5795 12.911 12.5795 13.1191C12.5591 17.3484 12.5591 21.5778 12.5795 25.8071C12.5806 26.0175 12.7468 26.3125 12.9255 26.4222C14.278 27.2512 15.6576 28.0344 17.0157 28.8542C17.2859 29.0177 17.4725 28.9937 17.7292 28.8416C20.4896 27.2032 23.2544 25.5727 26.0272 23.9537C26.3291 23.7776 26.4444 23.5787 26.4388 23.2299C26.4196 21.9905 26.4297 20.7522 26.4297 19.514ZM24.0087 21.9516C24.0064 22.1197 23.8764 22.3587 23.735 22.4433C21.7086 23.6576 19.6731 24.857 17.6286 26.0404C17.4884 26.1215 17.2271 26.1112 17.079 26.0324C16.4944 25.7248 15.9425 25.3532 15.359 25.0445C15.0447 24.8775 14.9565 24.6614 14.9587 24.3184C14.9745 22.6983 14.9655 21.077 14.9655 19.4568C14.9666 19.4568 14.9666 19.4568 14.9678 19.4568C14.9678 17.8366 14.9531 16.2153 14.9847 14.5952C14.9892 14.3688 15.1679 14.0692 15.3568 13.9366C15.8984 13.5593 16.4774 13.2323 17.0643 12.9293C17.226 12.8458 17.5098 12.8412 17.6648 12.9304C19.6957 14.0989 21.7165 15.2858 23.7282 16.4886C23.8707 16.5732 24.0041 16.8087 24.0064 16.9757C24.0279 18.6347 24.029 20.2937 24.0087 21.9516Z" fill="white"/>
<path d="M19.8 16.9766C20.4061 17.3333 20.9263 17.6294 21.434 17.9473C21.5278 18.0056 21.6194 18.152 21.6217 18.2594C21.6375 19.0587 21.6375 19.859 21.624 20.6594C21.6217 20.7714 21.5471 20.9292 21.4577 20.9852C20.9364 21.3122 20.4004 21.6152 19.7988 21.9685C19.8 20.2775 19.8 18.6871 19.8 16.9766Z" fill="white"/>
</g>
<defs>
<clipPath id="clip0_359_5645">
<rect width="13.874" height="18.932" fill="white" transform="translate(12.563 10.0339)"/>
</clipPath>
</defs>
</svg>
